<?xml version="1.0" encoding="utf-8"?>
<!-- Generator: Adobe Illustrator 28.0.0, SVG Export Plug-In . SVG Version: 6.00 Build 0)  -->
<svg version="1.1" id="Layer_1" xmlns="http://www.w3.org/2000/svg" xmlns:xlink="http://www.w3.org/1999/xlink" x="0px" y="0px"
	 viewBox="0 0 857 857" style="enable-background:new 0 0 857 857;" xml:space="preserve">
<style type="text/css">
	.st0{fill:#C5B3D7;}
	.st1{fill:#4B0040;}
	.st2{fill:#FEF4F8;}
</style>
<circle class="st0" cx="428.5" cy="428.5" r="428.5"/>
<g>
	<g>
		<path class="st1" d="M198.4,553c-0.3,0-0.7-0.1-0.9-0.3c-0.4-0.3-0.6-0.8-0.5-1.2l0.3-6.6c0-0.6,0.4-1.1,0.9-1.3
			c25.6-11.3,42.8-41.4,55.4-63.5l0.7-1.3c16.4-29,30.6-56.6,44.8-84.7c-9.7,3.5-24.4,6.7-40.3,6.7c-24.5,0-37.5-7.4-37.5-21.5
			c0-9,3.1-22.5,29.7-35.6c0.2-0.1,0.4-0.2,0.7-0.2c0.5,0,1,0.2,1.2,0.7l1.1,1.7c0.4,0.6,0.3,1.4-0.2,1.9
			c-6.7,7-10.4,16.3-10.4,20.1c0,21.3,23.8,21.3,31.6,21.3c9.7,0,20.7-3.2,29.3-6l0.8-1.5c20.5-42.2,32.5-61,45.8-71.9
			c9.3-8,17.5-11.5,27.2-11.5c9.5,0,14.9,4.5,14.9,12.4c0,21.3-27.6,51.4-67.2,73.3c-14.9,33.9-31.8,72.3-57.7,103.6
			c-7.2,8.5-11.7,14.3-15.4,18.9c-7,8.8-10.6,13.4-22.1,24.4l0.1,0.1c9.6-4.3,23.9-8.4,34-8.4c10.5,0,19.9,1.6,29.9,3.3
			c10,1.7,20.3,3.5,31.8,3.5c15.5,0,31.5-7.5,44.9-21.3c0.3-0.3,0.7-0.4,1.1-0.4c0,0,0,0,0,0c0.4,0,0.8,0.2,1.1,0.5l3.1,3.4
			c0.5,0.6,0.5,1.5,0,2c-34.3,36.3-45.5,38.2-72.8,38.2c-3.3,0-8.1-0.9-14.2-2.1c-11.4-2.2-27-5.3-47.2-5.3
			c-12.6,0-26.5,3.8-36.6,6.6c-2.5,0.7-4.9,1.4-7,1.9C198.7,552.9,198.6,553,198.4,553z M373.5,307c-6.8,0-15.4,8.6-23.5,23.5
			c-6.2,11.7-10.8,22.7-15.7,34.3c-1,2.5-2.1,5-3.2,7.6c35.2-23.3,47.2-50.4,47.2-59.5C378.3,307,375.7,307,373.5,307z M206.2,536.4
			c-0.3,0-0.6-0.1-0.9-0.3l-1.1-0.9c-0.4-0.3-0.6-0.7-0.6-1.1c0-0.4,0.1-0.9,0.5-1.2c15.3-14.5,28-32,41.1-56.7
			c17-31.7,17.6-40.4,18.1-48.8c0.4-4.6,2.8-6.3,4.9-6.3c4.4,0,4.9,3.3,4.9,5.8c0,7.3-10,30.2-22.8,52.2c-11.1,19-26,42.7-43.2,56.9
			C206.8,536.3,206.5,536.4,206.2,536.4z M218.2,397c-0.2,0-0.3,0-0.5-0.1c-9.4-3.1-10.5-11.1-10.5-16.8c0-10.1,7.2-21.5,19.7-31.2
			c0.3-0.2,0.6-0.3,0.9-0.3c0.1,0,0.2,0,0.2,0l1.7,0.3c0.6,0.1,1,0.5,1.2,1.1s0,1.2-0.5,1.5c-10.8,9-17.5,20.2-17.5,29.4
			c0,4.6,0.7,10.2,6.5,12.6c0.5,0.2,0.9,0.7,0.9,1.2c0.1,0.6-0.2,1.1-0.7,1.4l-0.9,0.6C218.7,396.9,218.4,397,218.2,397z
			 M298.1,376.7c-0.5,0-0.9-0.2-1.2-0.6c-0.3-0.4-0.4-0.9-0.2-1.4c10-29,26.4-52.7,46.3-66.7c0.3-0.2,0.6-0.3,0.9-0.3
			c0.2,0,0.4,0,0.6,0.1c0.5,0.2,0.8,0.6,0.9,1.1l0.3,1.4c0.1,0.6-0.1,1.2-0.6,1.5c-14.9,10.6-30.1,33.3-42.6,63.9
			c-0.2,0.6-0.8,0.9-1.4,0.9H298.1z"/>
		<path class="st2" d="M378.1,299.8c4.6,0,13.4,1.1,13.4,10.9c0,21.7-30,52-66.8,72.3c-16.3,37.1-32.6,73.4-57.7,103.7
			c-21.1,25.1-20,26.6-38.3,44l1.4,2.3c9.1-4.3,24.3-8.9,34.6-8.9c21.1,0,38.8,6.9,61.7,6.9c14.6,0,31.1-6.6,46-21.7l3.1,3.4
			c-34.3,36.3-44.8,37.7-71.7,37.7c-9.1,0-30-7.4-61.4-7.4c-16,0-33.7,6-44,8.6l0.3-6.6c26.6-11.7,44.3-43.4,56.8-65.4
			c17.1-30.3,31.7-58.8,46.6-88.3c-10.3,4.3-26.8,8-43.4,8c-16.9,0-36-3.7-36-20c0-11.7,6.3-23.1,28.8-34.3l1.1,1.7
			c-6.6,6.9-10.9,16.6-10.9,21.1c0,13.1,8,22.8,33.1,22.8c10.3,0,21.7-3.4,30.3-6.3l1.1-2c19.1-39.4,31.4-60,45.4-71.4
			C360.1,303.8,367.8,299.8,378.1,299.8 M327.8,376.4c40.8-25.4,52-55.1,52-63.4c0-6.9-3.4-7.4-6.3-7.4c-7.4,0-16.3,8.6-24.8,24.3
			C340.4,345.5,335,359.8,327.8,376.4 M343.8,309.3l0.3,1.4c-16.9,12-32,37.4-43.1,64.5h-2.9C307.5,347.8,323.5,323.5,343.8,309.3
			 M227.9,350.1l1.7,0.3c-12,10-18,21.7-18,30.6c0,4.3,0.6,11.1,7.4,14l-0.9,0.6c-8.6-2.9-9.4-10.3-9.4-15.4
			C208.7,370.7,215.3,359.8,227.9,350.1 M268.1,422.6c2.3,0,3.4,0.9,3.4,4.3c0,6.6-9.4,28.8-22.6,51.4c-11.1,19.1-26,42.6-42.8,56.5
			L205,534c15.7-14.9,28.6-32.8,41.4-57.1c16.9-31.4,17.7-40.6,18.3-49.4C265,423.8,266.7,422.6,268.1,422.6 M378.1,296.8
			c-10.1,0-18.6,3.5-28.2,11.8c-0.9,0.8-1.9,1.6-2.8,2.4c0-0.3,0-0.7,0-1l-0.3-1.4c-0.2-1-0.9-1.8-1.8-2.2c-0.4-0.1-0.7-0.2-1.1-0.2
			c-0.6,0-1.2,0.2-1.7,0.5c-20.1,14.2-36.7,38.1-46.8,67.5c-0.3,0.9-0.2,1.9,0.4,2.7c0.6,0.8,1.5,1.3,2.4,1.3h2.9
			c1.2,0,2.3-0.7,2.8-1.9c11.5-27.9,25.1-49.2,38.6-60.6c-10.8,11.8-21.9,30.8-38.6,65.2l-0.5,0.9c-8.4,2.8-19,5.8-28.2,5.8
			c-27,0-30.1-11.3-30.1-19.8c0-3.6,3.8-12.6,10-19.1c1-1,1.1-2.6,0.3-3.7l-1.1-1.7c-0.6-0.9-1.5-1.3-2.5-1.3
			c-0.4,0-0.9,0.1-1.3,0.3c-20.8,10.3-30.5,22-30.5,37c0,8.5,4.7,15.1,13.5,18.9c6.4,2.7,15,4.1,25.5,4.1c14.3,0,27.6-2.6,37.3-5.6
			c-13.6,26.9-27.3,53.6-43.1,81.4l-0.7,1.3c-9,15.7-20.3,35.6-35.4,49.7c13.7-14.3,25.5-33.3,34.7-49.1c12.9-22.1,23-45.4,23-52.9
			c0-3.3-1.1-7.3-6.4-7.3c-2.7,0-6,2-6.4,7.6c-0.5,8.3-1.1,16.8-17.9,48.2c-13,24.6-25.6,42-40.8,56.4c-0.6,0.6-1,1.5-0.9,2.4
			c0.1,0.9,0.5,1.7,1.2,2.2l1.1,0.9c0.4,0.3,0.8,0.4,1.2,0.5c-2.6,1.6-5.3,3.1-8,4.3c-1,0.5-1.7,1.5-1.8,2.6l-0.3,6.6
			c0,0.9,0.4,1.9,1.1,2.5c0.5,0.4,1.2,0.7,1.9,0.7c0.2,0,0.5,0,0.7-0.1c2.1-0.5,4.5-1.2,7-1.9c10.1-2.8,23.8-6.6,36.2-6.6
			c20.1,0,35.6,3,47,5.3c6.1,1.2,11,2.2,14.4,2.2c27.8,0,39.1-1.9,73.9-38.6c1.1-1.1,1.1-2.9,0-4.1l-3.1-3.4c-0.6-0.6-1.3-1-2.2-1
			c0,0,0,0-0.1,0c-0.8,0-1.6,0.3-2.1,0.9c-13.2,13.4-28.7,20.8-43.8,20.8c-11.4,0-21.6-1.8-31.6-3.5c-9.6-1.7-19.5-3.4-30.1-3.4
			c-8.1,0-18.9,2.6-27.9,5.9c7.7-7.7,11.2-12.1,17.1-19.5c3.7-4.6,8.2-10.4,15.4-18.9c26-31.3,42.9-69.6,57.7-103.5
			c18.2-10.1,34.9-22.8,47.1-35.7c13.4-14.1,20.4-27.5,20.4-38.7C394.5,302,388.4,296.8,378.1,296.8L378.1,296.8z M334.5,368.4
			c0.4-1,0.8-1.9,1.2-2.9c4.9-11.6,9.5-22.6,15.6-34.2c7.7-14.2,16-22.7,22.2-22.7c2,0,3.3,0,3.3,4.4
			C376.8,318.4,369,344,334.5,368.4L334.5,368.4z M227.9,347.1c-0.7,0-1.3,0.2-1.8,0.6c-13.1,10.1-20.3,21.6-20.3,32.4
			c0,3.6,0,14.4,11.5,18.3c0.3,0.1,0.6,0.2,0.9,0.2c0.6,0,1.2-0.2,1.7-0.5l0.9-0.6c0.9-0.6,1.4-1.7,1.3-2.8
			c-0.1-1.1-0.8-2.1-1.8-2.5c-3.9-1.6-5.6-5-5.6-11.2c0-6.8,4.4-17.9,16.9-28.3c0.9-0.8,1.3-2,1-3.1c-0.3-1.1-1.2-2-2.4-2.2
			l-1.7-0.3C228.2,347.1,228,347.1,227.9,347.1L227.9,347.1z"/>
	</g>
	<g>
		<path class="st1" d="M486.1,558.7c-24.7,0-40.1-10.9-40.1-28.3c0-22.7,19.7-31.7,31.3-33.5c0.1,0,0.2,0,0.2,0
			c0.7,0,1.3,0.5,1.5,1.1l0.6,2.3c0.2,0.6-0.1,1.3-0.6,1.6c-7.3,4.7-9.9,14.7-9.9,22.4c0,18.2,16,23.1,24.5,23.1
			c17.3,0,30.7-7,43.4-22.9c11.8-14.6,15.5-22.6,33.2-65.9c7.3-18.1,18.6-46.9,22.7-57.4c-18,20.4-54.9,60.9-83,60.9
			c-11.3,0-18.1-6.9-18.1-18.3c0-10.5,6.9-31,11.5-44.6c0.9-2.6,1.6-4.8,2.2-6.7c1.1-3.3,2.2-6.6,3.4-9.9
			c5.6-16.2,10.8-31.6,10.8-42.7c0-18.8-11.5-21.3-22.8-21.3c-12.3,0-27.8,6.9-39.5,17.6c-10.2,9.4-22.4,25.8-22.4,50.9
			c0,11.8,4.5,20.5,11.8,22.8c0.5,0.2,0.8,0.5,1,1c0.1,0.5,0,1-0.3,1.4c-3.8,4.7-8.1,8.8-18.9,8.8c-12.3,0-16.6-12.7-16.6-24.6
			c0-16.7,10.6-39,27-56.8c19.4-21.1,43.4-32.7,67.6-32.7c10,0,36.6,0,36.6,32.1c0,13.1-7.2,32.5-14.1,51.2
			c-6.5,17.7-12.7,34.3-12.7,44.7c0,5.9,2.1,7.9,8.2,7.9c15.3,0,57.8-36,82.9-83.7c5.3-10.2,9.8-20.6,13.7-29.7
			c3.3-7.7,6.2-14.4,8.6-18.6c0.1-0.1,0.1-0.2,0.2-0.3c5.1-5.4,15.9-10.2,19.7-10.2c3.3,0,4.4,0.6,4.4,4.4c0,1-0.8,2.9-4.5,11.3
			c-2.5,5.7-6,13.4-9.6,22.1c-6,14.4-12.8,32.9-19.3,50.8c-5.9,16.2-12.1,33-17.8,47.1c-17.1,43.1-34.8,73.8-54.2,93.8
			C529.9,549.2,509.4,558.7,486.1,558.7z M446.4,549.2c-0.3,0-0.5-0.1-0.8-0.2c-7.1-4.2-10.7-11.3-10.7-21c0-14.3,10-23.7,16.4-26.2
			c0.2-0.1,0.4-0.1,0.6-0.1c0.1,0,0.2,0,0.3,0l1.4,0.3c0.6,0.1,1.1,0.6,1.2,1.3c0.1,0.6-0.2,1.3-0.8,1.5
			c-6.8,3.4-13.7,12.8-13.7,24.1c0,1.2,0.2,11.8,7.9,17c0.4,0.3,0.7,0.7,0.7,1.2c0,0.5-0.3,1-0.7,1.2l-0.9,0.6
			C446.9,549.2,446.6,549.2,446.4,549.2z M506.6,541c-0.3,0-0.6-0.1-0.9-0.3c-0.4-0.3-0.6-0.7-0.6-1.2V538c0-0.6,0.4-1.2,1-1.4
			c15-5.5,27.9-21,40.6-48.6c9.8-21.6,10.5-23.2,16.8-38.6l0.3-0.8c0.2-0.6,0.8-0.9,1.4-0.9c0.1,0,0.2,0,0.2,0l1.7,0.3
			c0.4,0.1,0.8,0.3,1.1,0.7c0.2,0.4,0.3,0.9,0.1,1.3c-0.9,2.2-1.7,4.4-2.5,6.6c-3.9,10.2-7.9,20.7-14.9,35.8
			c-12.7,27.5-27.5,43.8-43.8,48.5C506.9,540.9,506.8,541,506.6,541z M486.1,439.6c-0.4,0-0.8-0.2-1.1-0.4l-0.9-0.9
			c-0.4-0.4-0.5-1-0.4-1.5l0.1-0.5c2.8-9.1,8.8-28,12.4-42.8c0.4-1.6,0.8-3.1,1.2-4.7c3.1-12.3,6.2-25.1,6.2-35.8
			c0-3.9-0.7-6.3-1.4-8.3c-0.5-1.6-0.9-3-0.9-4.8c0,0,0-0.1,0-0.1c0.4-4.7,2.8-5.6,4.6-5.6c2.6,0,5.8,1.4,5.8,8.1
			c0,3.9-0.9,8.8-3.2,20.6c-2.9,14.9-4.1,20.2-8.3,34.1c-4,14.3-8.7,30.4-12.9,41.8c-0.2,0.5-0.6,0.8-1.1,0.9
			C486.3,439.6,486.2,439.6,486.1,439.6z M548.9,427c-0.1,0-0.3,0-0.4-0.1c-0.5-0.2-0.9-0.6-1-1.2l-0.3-1.7
			c-0.1-0.5,0.1-0.9,0.4-1.3c19.2-20.5,35.1-43.3,53.2-76.2c3-5.8,5.3-12.4,6.4-16.5c0.7-2.6,1.8-5.7,5.2-5.7c1.1,0,3.8,0.4,3.8,4.4
			c0,0,0,0.1,0,0.1c-0.6,7.3-19.4,38.9-34.3,59.6c-11.2,15.5-17.4,23.1-31.8,38.1C549.7,426.8,549.3,427,548.9,427z M410.7,416.4
			c-0.1,0-0.3,0-0.4-0.1c-10-3.1-10.8-15.7-10.8-19.4c0-7,2.3-32,32.1-62.7c0.3-0.3,0.7-0.5,1.1-0.5c0.1,0,0.2,0,0.3,0l1.4,0.3
			c0.5,0.1,1,0.5,1.1,1c0.2,0.5,0,1.1-0.3,1.5c-13.5,14.3-29.3,39-29.3,61.8c0,4.4,0.8,12.3,6.2,14.6c0.5,0.2,0.8,0.7,0.9,1.2
			s-0.2,1.1-0.7,1.4l-0.9,0.6C411.2,416.3,410.9,416.4,410.7,416.4z"/>
		<path class="st2" d="M649.7,301.8c2.6,0,2.9,0,2.9,2.9c0,1.4-6.6,14.9-14,32.8c-11.4,27.4-25.1,68.3-37.1,98
			c-34.3,86.5-70.8,121.7-115.4,121.7c-24.6,0-38.6-10.6-38.6-26.8c0-21.7,18.6-30.3,30-32l0.6,2.3c-8,5.1-10.6,16-10.6,23.7
			c0,19.4,17.1,24.6,26,24.6c18,0,31.7-7.4,44.6-23.4c12-14.9,16-23.7,33.4-66.3c9.1-22.6,24.3-61.4,24.3-61.4l-1.4-0.6
			c-18.6,21.1-56.3,63.4-84.5,63.4c-9.4,0-16.6-5.1-16.6-16.9c0-12.3,10-39.4,13.7-50.8c6.6-19.7,14.3-39.4,14.3-53.1
			c0-22-15.4-22.8-24.3-22.8c-23.4,0-63.4,24.6-63.4,70c0,12.3,4.9,21.7,12.9,24.3c-3.7,4.6-7.7,8.3-17.7,8.3
			c-12.9,0-15.1-15.1-15.1-23.1c0-31.4,40-88,93.1-88c11.4,0,35.1,0.9,35.1,30.6c0,24.8-26.8,74-26.8,96c0,7.4,3.4,9.4,9.7,9.4
			c16,0,58.8-36.3,84.3-84.5c10-19.1,17.1-39.4,22.3-48.3C636,306.4,646.3,301.8,649.7,301.8 M612.3,325.8c1.7,0,2.3,1.1,2.3,2.9
			c-0.6,6.6-18.6,37.4-34,58.8c-11.4,15.7-17.7,23.4-31.7,38l-0.3-1.7c22.3-23.7,38.6-49.4,53.4-76.5c3.1-6,5.4-12.6,6.6-16.9
			C609.4,327,610.6,325.8,612.3,325.8 M432.6,335.3l1.4,0.3c-25.7,27.1-29.7,53.7-29.7,62.8c0,4,0.6,13.1,7.1,16l-0.9,0.6
			c-8.3-2.6-9.7-12.9-9.7-18C400.9,388.7,404.4,364.4,432.6,335.3 M506,335.5c1.4,0,4.3,0.3,4.3,6.6c0,3.7-0.9,8.3-3.1,20.3
			c-2.9,14.9-4,20-8.3,34c-3.7,13.1-8.6,30-12.9,41.7l-0.9-0.9c2.9-9.1,8.9-28.3,12.6-43.4c3.4-14,7.4-28.6,7.4-40.8
			c0-7.1-2.3-9.4-2.3-13.1C503.2,336.7,504.3,335.5,506,335.5 M565.2,449.2l1.7,0.3c-4.9,12.6-8.9,24-17.4,42.3
			c-9.1,19.7-23.1,42-42.8,47.7V538c14-5.1,27.4-18.8,41.4-49.4C558,466.6,558.6,465.2,565.2,449.2 M451.8,503.2l1.4,0.3
			c-6.9,3.4-14.6,13.1-14.6,25.4c0,4.3,1.4,13.4,8.6,18.3l-0.9,0.6c-9.1-5.4-10-14.6-10-19.7C436.4,514.3,446.1,505.5,451.8,503.2
			 M649.7,298.8c-4.6,0-15.7,5.3-20.7,10.7c-0.2,0.2-0.3,0.4-0.4,0.6c-2.5,4.3-5.4,11-8.7,18.8c-3.9,9.1-8.3,19.5-13.6,29.6
			c-11.4,21.6-27.4,42.8-45.1,59.6c-2.4,2.3-4.8,4.4-7,6.4c12.3-13,18.6-20.9,28.9-35.1c13.4-18.6,33.8-52.2,34.5-60.3
			c0-0.1,0-0.2,0-0.3c0-2.7-1.4-5.9-5.3-5.9c-4.9,0-6.2,5.2-6.6,6.8c-1.1,4-3.3,10.4-6.3,16.2c-18,32.8-33.8,55.5-52.9,75.9
			c-0.6,0.7-0.9,1.6-0.8,2.5l0.3,1.7c0.2,1.1,1,2,2.1,2.4c0.3,0.1,0.6,0.1,0.9,0.1c0.1,0,0.1,0,0.2,0c-11.8,9.3-20.3,12.9-24.5,12.9
			c-5.3,0-6.7-1.3-6.7-6.4c0-10.1,6.4-27.5,12.6-44.2c7-18.9,14.2-38.4,14.2-51.8c0-33.6-28.7-33.6-38.1-33.6
			c-24.6,0-49,11.8-68.7,33.2c-16.7,18.1-27.4,40.8-27.4,57.8c0,5.5,0.9,11.1,3,15.8c-0.2-0.2-0.5-0.4-0.8-0.5
			c-4.6-2-5.3-9.2-5.3-13.2c0-3.1,0.8-31.1,28.9-60.8c0.8-0.8,1-1.9,0.7-3c-0.3-1-1.2-1.8-2.3-2l-1.4-0.3c-0.2,0-0.4-0.1-0.6-0.1
			c-0.8,0-1.6,0.3-2.2,0.9c-30.2,31.1-32.5,56.7-32.5,63.8c0,4,0.9,17.5,11.8,20.9c0.3,0.1,0.6,0.1,0.9,0.1c0.6,0,1.2-0.2,1.7-0.5
			l0.9-0.6c0.9-0.6,1.4-1.7,1.3-2.8c0,0,0,0,0,0c2.9,5,7.4,8.4,14.2,8.4c11.4,0,16.2-4.6,20-9.4c0.6-0.8,0.8-1.8,0.5-2.7s-1-1.7-2-2
			c-6.6-2.1-10.8-10.3-10.8-21.4c0-24.6,11.9-40.6,21.9-49.8c11.4-10.4,26.5-17.2,38.5-17.2c4.8,0,9.9,0.3,13.9,2.8
			c4.9,3,7.4,8.5,7.4,17.1c0,10.9-5.2,26.1-10.8,42.2c-1.1,3.2-2.3,6.6-3.4,9.9c-0.6,1.9-1.4,4.1-2.2,6.7c-0.9,2.8-2,5.9-3.1,9.1
			c1-3.6,2-7.1,3-10.6c4.3-14,5.5-19.3,8.4-34.3c2.3-11.9,3.2-16.8,3.2-20.8c0-8.3-4.6-9.6-7.3-9.6c-1.7,0-5.6,0.7-6.1,7
			c0,0.1,0,0.2,0,0.3c0,2,0.5,3.7,1,5.3c0.6,2.1,1.3,4.2,1.3,7.9c0,10.5-3.1,23.2-6.2,35.4c-0.4,1.6-0.8,3.1-1.2,4.7
			c-3.6,14.8-9.5,33.7-12.4,42.8l-0.1,0.5c-0.3,1.1,0,2.2,0.7,3l0.9,0.9c0.6,0.6,1.3,0.9,2.1,0.9c0.2,0,0.4,0,0.6-0.1
			c1-0.2,1.8-0.9,2.2-1.9c1.4-3.8,2.8-8.1,4.3-12.6c-1.7,6.7-2.9,12.8-2.9,17.3c0,12.2,7.5,19.9,19.6,19.9c13.1,0,28.8-8,47.9-24.5
			c11.5-10,22.5-21.6,30.7-30.7c-5.2,13.3-13.7,35-19.7,49.6c-17.7,43.1-21.3,51.1-33,65.5c-12.4,15.4-25.4,22.3-42.2,22.3
			c-8,0-23-4.5-23-21.6c0-7,2.4-16.8,9.2-21.2c1.1-0.7,1.6-2,1.3-3.3l-0.6-2.3c-0.3-1.4-1.6-2.3-2.9-2.3c-0.1,0-0.3,0-0.4,0
			c-6.2,0.9-14.5,3.8-21.2,9.6c0.3-0.6,0.5-1.2,0.4-1.9c-0.2-1.3-1.1-2.3-2.4-2.5l-1.4-0.3c-0.2,0-0.4-0.1-0.6-0.1
			c-0.4,0-0.8,0.1-1.1,0.2c-6.7,2.7-17.3,12.5-17.3,27.6c0,10.3,3.9,17.8,11.5,22.3c0.5,0.3,1,0.4,1.5,0.4c0.6,0,1.2-0.2,1.7-0.5
			l0.9-0.6c0.8-0.6,1.3-1.5,1.3-2.5c0,0,0-0.1,0-0.1c6.8,8.3,19.3,13.1,35.8,13.1c23.8,0,44.6-9.6,63.7-29.3
			c19.5-20.1,37.3-51,54.5-94.3c5.7-14.1,11.8-30.9,17.8-47.1c6.6-17.9,13.3-36.4,19.3-50.8c3.6-8.7,7-16.5,9.6-22.1
			c4-9.1,4.7-10.6,4.7-11.9c0-1.5,0-3.4-1.4-4.7C652.9,298.8,651.4,298.8,649.7,298.8L649.7,298.8z M448.2,544.2
			c-6.3-5-6.5-14.2-6.5-15.3c0-10.5,6.6-19.5,12.8-22.7c-5.8,5.5-10,13.3-10,24.1C444.5,535.5,445.8,540.2,448.2,544.2L448.2,544.2z
			 M565.2,446.2c-1.2,0-2.3,0.7-2.8,1.9l-0.3,0.8c-6.3,15.4-7,17-16.8,38.6c-12.5,27.3-25.1,42.5-39.7,47.8c-1.2,0.4-2,1.6-2,2.8
			v1.4c0,0.9,0.4,1.8,1.2,2.4c0.5,0.4,1.2,0.6,1.8,0.6c0.3,0,0.6,0,0.8-0.1c16.8-4.9,31.8-21.4,44.7-49.3
			c7.1-15.1,11.1-25.7,15-35.8c0.8-2.2,1.7-4.4,2.5-6.6c0.3-0.8,0.3-1.8-0.2-2.6s-1.2-1.3-2.1-1.5l-1.7-0.3
			C565.5,446.2,565.3,446.2,565.2,446.2L565.2,446.2z"/>
	</g>
	<g>
		<path class="st1" d="M609.4,551.5c-10.4,0-10.4-10.6-10.4-14.6c0-9.6,8.2-18.1,17.5-18.1c10.4,0,10.4,9.8,10.4,13.5
			C626.9,543.1,619.2,551.5,609.4,551.5z"/>
		<path class="st2" d="M616.6,520.3c8.6,0,8.9,7.4,8.9,12c0,9.7-6.9,17.7-16,17.7c-7.7,0-8.9-6.6-8.9-13.1
			C600.6,528.3,607.7,520.3,616.6,520.3 M616.6,517.3c-10.3,0-19,9-19,19.6c0,4,0,16.1,11.9,16.1c10.7,0,19-9.1,19-20.7
			C628.4,528.6,628.4,517.3,616.6,517.3L616.6,517.3z"/>
	</g>
</g>
</svg>
